<?xml version="1.0" standalone="no"?>
<!DOCTYPE svg PUBLIC "-//W3C//DTD SVG 20010904//EN"
 "http://www.w3.org/TR/2001/REC-SVG-20010904/DTD/svg10.dtd">
<svg version="1.0" xmlns="http://www.w3.org/2000/svg"
 width="1280.000000pt" height="1280.000000pt" viewBox="0 0 1280.000000 1280.000000"
 preserveAspectRatio="xMidYMid meet">
<metadata>
Created by potrace 1.15, written by Peter Selinger 2001-2017
</metadata>
<g transform="translate(0.000000,1280.000000) scale(0.100000,-0.100000)"
fill="#000000" stroke="none">
<path d="M2787 11943 c-4 -3 4 -25 17 -47 13 -23 38 -90 55 -150 18 -59 47
-143 66 -185 56 -129 58 -143 49 -260 -4 -58 -7 -126 -6 -150 2 -42 81 -299
108 -352 12 -24 11 -28 -22 -60 -69 -66 -217 -311 -258 -427 -30 -83 -32 -125
-11 -166 8 -15 15 -39 15 -52 0 -13 5 -24 10 -24 6 0 10 8 10 17 0 9 3 14 6
11 3 -4 -1 -60 -10 -126 -9 -74 -13 -140 -8 -173 l7 -54 6 55 7 55 -2 -62 c0
-34 1 -59 4 -57 2 3 16 -44 31 -103 15 -59 46 -157 69 -216 48 -122 61 -134
153 -139 53 -3 57 -6 87 -47 24 -32 29 -46 19 -51 -9 -6 -8 -19 8 -57 12 -26
24 -66 27 -88 6 -39 5 -42 -92 -147 -110 -118 -149 -188 -132 -233 7 -18 6
-31 -2 -45 -10 -15 -8 -37 10 -112 12 -51 22 -106 22 -121 0 -16 11 -43 24
-60 13 -18 41 -63 62 -102 21 -38 77 -117 123 -175 47 -58 100 -130 118 -160
17 -30 46 -73 63 -96 16 -23 30 -45 30 -51 0 -5 13 -27 30 -50 27 -37 186
-344 237 -458 31 -69 119 -231 155 -285 58 -86 153 -195 272 -310 l119 -116
-27 -46 c-39 -67 -42 -125 -16 -269 19 -105 28 -131 57 -172 43 -61 88 -102
166 -149 54 -34 68 -38 128 -38 59 0 268 19 401 36 l46 6 25 -48 c34 -69 64
-167 77 -254 6 -41 18 -82 26 -91 13 -15 13 -23 -5 -76 -13 -40 -20 -85 -20
-139 0 -43 -2 -124 -5 -179 -7 -112 1 -138 34 -117 27 16 30 15 30 -8 0 -14 7
-20 21 -20 20 0 20 -3 14 -92 -4 -51 -13 -129 -22 -173 -8 -44 -18 -172 -23
-285 -8 -203 -9 -207 -63 -420 -30 -118 -66 -245 -80 -282 -14 -37 -35 -118
-46 -180 -11 -62 -40 -171 -65 -243 -24 -71 -47 -157 -51 -190 -3 -33 -17
-103 -30 -155 -13 -52 -31 -139 -39 -192 -9 -54 -31 -137 -50 -185 -18 -49
-46 -128 -61 -178 -15 -49 -47 -130 -72 -180 -51 -103 -73 -162 -71 -190 2
-31 -126 -345 -198 -486 -122 -241 -178 -304 -314 -359 -157 -63 -255 -137
-266 -199 -9 -53 -14 -71 -22 -69 -4 1 -30 -4 -59 -11 -55 -13 -87 -37 -62
-45 50 -17 190 -26 358 -25 225 2 362 13 441 36 53 16 54 17 29 26 l-27 10 48
38 c55 44 113 116 193 246 61 97 169 208 213 219 40 10 73 -11 97 -64 20 -43
22 -64 23 -232 l0 -185 -30 -6 c-18 -4 4 -6 49 -5 l80 1 7 122 c8 143 29 228
99 396 51 125 84 231 75 246 -8 13 -55 67 -113 131 -61 68 -69 83 -83 144 -14
64 14 168 84 311 96 196 213 438 253 525 22 47 59 116 81 153 59 94 168 315
202 406 15 42 42 108 58 146 22 53 31 92 35 160 4 50 13 122 21 160 9 39 16
88 16 110 0 46 60 307 95 410 44 133 112 300 162 400 28 55 82 170 121 255 39
85 111 235 161 333 50 99 91 184 91 191 0 6 15 34 33 61 50 76 129 224 123
233 -3 5 5 21 18 37 l23 28 12 -49 c27 -108 138 -435 204 -604 118 -299 171
-420 211 -485 24 -38 62 -110 83 -160 26 -60 94 -171 203 -330 89 -132 175
-256 190 -275 37 -48 60 -94 60 -122 0 -13 34 -93 75 -178 77 -162 245 -643
300 -861 14 -57 40 -146 56 -198 16 -51 35 -130 40 -175 6 -44 26 -134 45
-199 19 -65 36 -144 39 -175 8 -85 25 -179 46 -252 10 -36 23 -114 29 -175 6
-60 13 -137 16 -170 7 -74 -30 -472 -51 -541 -8 -28 -23 -57 -32 -66 -10 -8
-71 -44 -136 -79 -140 -75 -197 -129 -197 -184 l0 -35 -95 3 c-79 2 -95 0 -95
-13 0 -13 -1 -13 -10 0 -8 12 -12 12 -18 2 -5 -7 -17 -10 -28 -6 -14 4 -15 3
-6 -4 8 -5 12 -18 10 -28 -2 -10 3 -19 10 -19 8 0 20 -8 27 -18 21 -29 160
-47 490 -62 107 -5 370 7 380 17 14 14 -11 37 -53 49 l-46 13 103 23 c124 28
207 70 266 135 63 70 88 131 130 318 49 217 48 215 69 165 16 -37 75 -240 90
-312 4 -17 14 -37 21 -43 18 -15 75 -3 75 14 0 8 -12 62 -26 122 -23 97 -27
140 -34 394 -8 268 -18 360 -40 360 -6 0 -27 15 -47 33 -21 19 -64 51 -96 72
-32 21 -72 52 -89 69 -39 38 -89 143 -82 170 7 28 -24 157 -41 176 -27 30
-125 777 -125 949 0 47 -5 113 -10 146 -6 33 -17 128 -25 211 -8 86 -21 169
-30 190 -9 22 -30 89 -46 149 -35 129 -59 191 -105 262 -19 29 -47 80 -64 112
-41 83 -127 212 -199 301 -81 99 -117 174 -141 293 -11 54 -26 122 -34 150 -8
29 -18 77 -21 107 -3 30 -15 105 -25 165 -10 61 -22 144 -25 185 -4 41 -13
104 -21 140 -9 36 -16 94 -16 130 0 36 -5 73 -10 84 -10 19 -26 130 -34 231
-7 105 -25 239 -36 274 -8 25 -7 106 3 288 19 379 2 525 -86 710 -76 162 -155
262 -280 355 -57 43 -81 66 -74 74 11 13 -32 64 -54 64 -8 0 -31 11 -51 25
-20 14 -48 25 -62 25 -14 0 -69 11 -122 25 -53 14 -139 29 -191 34 -51 6 -96
12 -98 15 -3 2 10 26 28 52 63 92 85 214 56 312 -70 231 -312 405 -543 390
-53 -4 -78 -10 -102 -28 -36 -27 -62 -84 -62 -138 0 -20 -7 -75 -15 -122 -26
-146 -29 -219 -11 -279 9 -30 16 -58 16 -63 0 -12 -57 1 -220 51 -171 52 -325
121 -378 172 -23 21 -46 39 -52 39 -31 0 -120 147 -120 200 0 26 -94 223 -136
287 -19 28 -34 55 -34 60 0 4 -10 13 -22 18 -13 6 -30 25 -39 42 -24 48 -35
58 -65 61 -20 1 -55 29 -123 95 -53 51 -113 106 -133 121 -21 16 -36 32 -33
36 6 10 -55 64 -94 85 -89 46 -248 105 -333 125 -140 32 -231 26 -321 -20
l-69 -35 -26 33 c-16 19 -36 32 -49 32 -19 0 -23 6 -23 30 0 20 -6 32 -17 36
-52 16 -53 18 -40 44 7 14 27 29 47 35 19 5 42 14 50 20 8 5 20 10 27 10 6 0
21 13 33 28 l22 28 19 -22 18 -21 49 49 c55 55 99 149 140 302 21 79 26 120
26 226 1 117 -2 138 -27 215 -52 155 -93 228 -179 312 l-77 78 60 96 c60 96
158 231 245 334 87 104 89 114 86 365 -3 241 -6 251 -63 281 -17 8 -54 18 -83
21 -42 4 -57 1 -85 -19 -51 -34 -66 -60 -131 -216 -33 -79 -79 -173 -103 -210
-24 -37 -56 -85 -70 -108 -30 -49 -91 -191 -142 -334 -21 -58 -41 -109 -45
-113 -4 -4 -60 -4 -126 0 l-119 8 -7 80 c-4 44 -23 189 -42 323 -34 235 -36
245 -72 304 -47 77 -138 192 -209 262 -78 78 -201 137 -228 109z m60 -2025
c-2 -13 -4 -5 -4 17 -1 22 1 32 4 23 2 -10 2 -28 0 -40z m3013 -2038 c172 -51
260 -81 260 -87 0 -12 -137 7 -200 28 -63 20 -190 84 -190 96 0 3 8 2 18 -2 9
-3 60 -19 112 -35z m-1532 -605 c29 -13 72 -38 96 -55 25 -16 53 -30 64 -30
24 0 54 -32 48 -51 -3 -8 -12 -40 -21 -71 -8 -32 -19 -58 -24 -58 -18 0 -191
173 -225 224 -20 30 -36 57 -36 60 0 14 49 4 98 -19z m779 -444 c141 -45 262
-78 351 -96 76 -15 242 -72 259 -88 3 -4 -5 -7 -20 -7 -31 0 -67 -42 -67 -78
0 -13 -22 -63 -50 -111 -27 -47 -59 -110 -71 -138 -12 -29 -24 -53 -28 -53 -9
1 -73 84 -94 122 -13 25 -17 51 -15 106 2 55 -1 76 -12 83 -15 9 -243 6 -427
-7 -106 -7 -110 1 -48 92 26 37 62 98 81 136 19 37 38 68 43 68 5 0 49 -13 98
-29z"/>
</g>
</svg>
